<svg xmlns="http://www.w3.org/2000/svg" width="31.152" height="21.417" viewBox="0 0 31.152 21.417"><defs><style>.a{fill:#8a8b9a;}</style></defs><g transform="translate(0 0)"><path class="a" d="M29.828,82.064c-.845-1.5-1.762-1.78-3.629-1.885C24.334,80.053,19.643,80,15.58,80s-8.764.053-10.627.177c-1.863.107-2.782.382-3.635,1.887C.448,83.565,0,86.151,0,90.7v.016c0,4.533.448,7.138,1.318,8.623.853,1.5,1.77,1.776,3.633,1.9,1.865.109,6.558.173,10.629.173s8.754-.064,10.621-.171c1.867-.127,2.784-.4,3.629-1.9.878-1.486,1.322-4.091,1.322-8.623V90.7C31.152,86.151,30.708,83.565,29.828,82.064ZM11.682,96.55V84.868l9.735,5.841Z" transform="translate(0 -80)"/></g></svg>