<svg xmlns="http://www.w3.org/2000/svg" width="27.883" height="22.655" viewBox="0 0 27.883 22.655"><defs><style>.a{fill:#8a8b9a;}</style></defs><g transform="translate(0 0)"><path class="a" d="M27.883,50.682a11.918,11.918,0,0,1-3.294.9A5.684,5.684,0,0,0,27.1,48.425a11.423,11.423,0,0,1-3.625,1.384,5.716,5.716,0,0,0-9.888,3.909,5.886,5.886,0,0,0,.132,1.3A16.18,16.18,0,0,1,1.941,49.042,5.718,5.718,0,0,0,3.7,56.682a5.645,5.645,0,0,1-2.583-.7v.063A5.742,5.742,0,0,0,5.7,61.657a5.705,5.705,0,0,1-1.5.188,5.054,5.054,0,0,1-1.082-.1A5.771,5.771,0,0,0,8.455,65.73a11.486,11.486,0,0,1-7.087,2.438A10.707,10.707,0,0,1,0,68.089a16.093,16.093,0,0,0,8.769,2.565c10.519,0,16.27-8.713,16.27-16.266,0-.253-.009-.5-.021-.739A11.4,11.4,0,0,0,27.883,50.682Z" transform="translate(0 -48)"/></g></svg>