<svg xmlns="http://www.w3.org/2000/svg" width="24.697" height="23.831" viewBox="0 0 24.697 23.831"><defs><style>.a{fill:#8a8b9a;}</style></defs><g transform="translate(0.416)"><g transform="translate(0.45 7.447)"><rect class="a" width="5.329" height="16.384"/></g><g transform="translate(7.897 7.447)"><path class="a" d="M172.4,160.192c-.057-.018-.11-.037-.17-.054s-.143-.03-.216-.042a4.777,4.777,0,0,0-.956-.1,7.4,7.4,0,0,0-5.727,3.132V160H160v16.384h5.329v-8.937s4.028-5.609,5.727-1.489v10.426h5.328V165.328A5.314,5.314,0,0,0,172.4,160.192Z" transform="translate(-160 -160)"/></g><g transform="translate(0)"><circle class="a" cx="3" cy="3" r="3" transform="translate(-0.416)"/></g></g></svg>