<svg xmlns="http://www.w3.org/2000/svg" width="23.831" height="23.831" viewBox="0 0 23.831 23.831"><defs><style>.a{fill:#8a8b9a;}</style></defs><path class="a" d="M16.384,0H7.447A7.448,7.448,0,0,0,0,7.447v8.937a7.448,7.448,0,0,0,7.447,7.447h8.937a7.448,7.448,0,0,0,7.447-7.447V7.447A7.448,7.448,0,0,0,16.384,0ZM21.6,16.384A5.219,5.219,0,0,1,16.384,21.6H7.447a5.219,5.219,0,0,1-5.213-5.213V7.447A5.219,5.219,0,0,1,7.447,2.234h8.937A5.219,5.219,0,0,1,21.6,7.447Z"/><g transform="translate(5.958 5.958)"><path class="a" d="M133.958,128a5.958,5.958,0,1,0,5.958,5.958A5.958,5.958,0,0,0,133.958,128Zm0,9.682a3.724,3.724,0,1,1,3.724-3.724A3.729,3.729,0,0,1,133.958,137.682Z" transform="translate(-128 -128)"/></g><g transform="translate(17.527 4.717)"><circle class="a" cx="0.794" cy="0.794" r="0.794"/></g></svg>