<svg xmlns="http://www.w3.org/2000/svg" width="40.173" height="21.185" viewBox="0 0 40.173 21.185"><defs><style>.a{fill:#5f606c;}</style></defs><g transform="translate(0 0)"><path class="a" d="M39.873,130.808c-.359-.4-8.984-9.808-19.787-9.808S.658,130.408.3,130.808a1.177,1.177,0,0,0,0,1.57c.359.4,8.984,9.807,19.787,9.807s19.428-9.407,19.787-9.807A1.177,1.177,0,0,0,39.873,130.808Zm-19.787,9.024a8.239,8.239,0,1,1,8.239-8.239A8.249,8.249,0,0,1,20.086,139.831Z" transform="translate(0 -121)"/></g><g transform="translate(14.202 4.708)"><path class="a" d="M188.062,184.531a3.52,3.52,0,0,1,1.482-2.866,5.808,5.808,0,0,0-2.659-.665,5.885,5.885,0,1,0,5.784,6.877A3.51,3.51,0,0,1,188.062,184.531Z" transform="translate(-181 -181)"/></g></svg>