<svg xmlns="http://www.w3.org/2000/svg" width="149.251" height="32.544" viewBox="0 0 149.251 32.544"><defs><style>.a{opacity:0.697;}.b{fill:#2c2c2e;}</style></defs><g class="a"><path class="b" d="M38.314,32.406l.162.238a9.933,9.933,0,0,1-5.962,1.724c-13.238,0-14.875-13.522-20.787-13.522H5.318V33.567h2.92v.36H0v-.36H2.8V5.175H0V4.81H12.28c6.236,0,9.319,3.519,9.319,7.762,0,4.117-2.682,7-6.8,7.955,6.4,1.014,8.8,13.481,18.277,13.481a10.972,10.972,0,0,0,5.237-1.6ZM5.318,5.17V20.38h6.343c5.521,0,7.443-2.8,7.443-7.681,0-4.36-2.92-7.519-7.24-7.519Zm33.8,21.238s-1.6,2.282-5.521,2.282c-4.36,0-7.4-3-7.4-8.4,0-4.6,2.241-8.518,7.24-8.518,3.28,0,5.917,2.028,5.917,7.96h-11.2v.679c0,4.355,1.323,7.879,5.481,7.879a6.624,6.624,0,0,0,5.242-2.119ZM28.194,19.371h9.278c0-4.2-.958-7.2-4.056-7.2S28.438,15.046,28.194,19.371Z" transform="translate(0 -2.371)"/><path class="b" d="M88.016,18.62c4.2,0,7.235,1.916,7.235,5.4a3.945,3.945,0,0,1-.4,1.638h-.436a3.509,3.509,0,0,0,.4-1.638c0-2.763-2.282-5.04-6.8-5.04-2.641,0-5.577,1.115-5.577,4.517,0,6.084,13.6,4.68,13.6,11.56,0,3.64-3.64,6.119-8.36,6.119-4.2,0-8.036-2.763-8.036-7.159a3.955,3.955,0,0,1,.4-1.643h.441a3.519,3.519,0,0,0-.385,1.648c0,3.676,3.042,6.8,7.605,6.8,2.641,0,6.282-1.242,6.282-4.958,0-5.841-13.476-4.761-13.476-11.154C80.5,20.06,85.055,18.62,88.016,18.62Z" transform="translate(-39.262 -9.18)"/><path class="b" d="M134.672,31.2v.36h-3.595c-1.044,0-1.724-.842-1.724-2.16V15.839c0-3.721-1.014-6.038-4.239-6.038-4.2,0-6.718,3.676-7.316,5.318V31.2h2.915v.36h-8.239V31.2h2.8V.36h-2.8V0h3.6c1.014,0,1.724.842,1.724,2.16V14.328c.958-1.962,3.437-4.877,7.316-4.877,4.32,0,6.758,2.028,6.758,6.317V31.2Z" transform="translate(-55.448)"/><path class="b" d="M172.568,28.016a3.29,3.29,0,0,1-3.24-3.4c0-8.4,15.687-5.253,15.687-11.337,0-1.876-1.014-4.056-3.321-4.056a2.345,2.345,0,0,0-2.535,2.241c0,1.8,1.237,2.079,1.237,2.079l-.157.238a2.292,2.292,0,0,1-1.44-2.317,2.63,2.63,0,0,1,2.915-2.535c2.444,0,3.721,2,3.721,4.4,0,3.443-2.839,6.084-7.037,6.642a5.932,5.932,0,0,1,4.477,5.719c0,5.121-4.477,8.477-11.717,8.477s-11.838-4.239-11.838-9.278c0-5.481,4.081-8.279,7.681-8.279v-.081a6.211,6.211,0,0,1-5.521-6.2c0-5.324,4.639-7.042,8.32-7.042,3.919,0,6.915,1.8,6.915,5.07a4.593,4.593,0,0,1-2.535,4.157l-.2-.279A4.213,4.213,0,0,0,176.34,8.36c0-2.718-2.358-4.761-6.556-4.761-3.6,0-5.841,2.028-5.841,6.839,0,3.843,1.759,6.084,5.841,6.084v.36h-1.856c-3.361,0-6.16,3.443-6.16,8.112,0,4.837,3.159,8.8,9.359,8.8,6.52,0,11.316-2.8,11.316-8.112a5.574,5.574,0,0,0-5.876-5.6c-5.04,0-6.88,2.535-6.88,4.522a2.976,2.976,0,0,0,2.88,3.118Z" transform="translate(-78.545 -1.622)"/><path class="b" d="M235.2,31.057s-2.439,2.961-8.112,2.961c-7.559,0-12.837-5.242-12.837-14.6C214.245,11.178,218.179,4.1,226.8,4.1c5.44,0,8.837,2.479,8.837,6.88a5.531,5.531,0,0,1-.8,2.92h-.36a7.5,7.5,0,0,0,.72-2.92c0-3.762-2.677-6.52-8.4-6.52-5.577,0-9.76,5.922-9.76,15.119,0,7.717,2.92,14.079,10.14,14.079,5.44,0,7.757-2.88,7.757-2.88Z" transform="translate(-105.625 -2.021)"/><path class="b" d="M255.57,29.957c0-6.16,3.321-11.357,9.841-11.357s9.836,5.2,9.836,11.357c0,7.2-4,11.2-9.836,11.2S255.57,37.166,255.57,29.957Zm17.2.122c0-6.479-2.535-11.119-7.357-11.119s-7.362,4.639-7.362,11.119c0,5.836,1.683,10.718,7.362,10.718s7.357-4.872,7.357-10.708Z" transform="translate(-125.996 -9.17)"/></g></svg>