<svg xmlns="http://www.w3.org/2000/svg" width="23.662" height="21.052" viewBox="0 0 23.662 21.052"><defs><style>.a{fill:#5f606c;}</style></defs><path class="a" d="M21.785,2.06A6.363,6.363,0,0,0,17.052,0a5.953,5.953,0,0,0-3.718,1.283,7.607,7.607,0,0,0-1.5,1.57,7.6,7.6,0,0,0-1.5-1.57A5.952,5.952,0,0,0,6.61,0,6.363,6.363,0,0,0,1.877,2.06,7.4,7.4,0,0,0,0,7.111a8.807,8.807,0,0,0,2.347,5.765A50.041,50.041,0,0,0,8.222,18.39c.814.694,1.737,1.48,2.695,2.318a1.389,1.389,0,0,0,1.829,0c.958-.838,1.881-1.625,2.7-2.319a50.019,50.019,0,0,0,5.874-5.514,8.806,8.806,0,0,0,2.347-5.765A7.4,7.4,0,0,0,21.785,2.06Zm0,0"/></svg>