<svg xmlns="http://www.w3.org/2000/svg" width="17.564" height="21.053" viewBox="0 0 17.564 21.053"><defs><style>.a{fill:#5f606c;}</style></defs><path class="a" d="M92.1,10.141a4.906,4.906,0,0,0,3.585-1.486A4.906,4.906,0,0,0,97.173,5.07a4.907,4.907,0,0,0-1.486-3.585,5.069,5.069,0,0,0-7.17,0A4.906,4.906,0,0,0,87.031,5.07a4.906,4.906,0,0,0,1.486,3.585A4.907,4.907,0,0,0,92.1,10.141Zm0,0" transform="translate(-83.453)"/><path class="a" d="M17.522,253.336a12.524,12.524,0,0,0-.171-1.33,10.482,10.482,0,0,0-.327-1.337,6.606,6.606,0,0,0-.55-1.247,4.707,4.707,0,0,0-.829-1.08,3.655,3.655,0,0,0-1.191-.748,4.116,4.116,0,0,0-1.52-.275,1.543,1.543,0,0,0-.824.35c-.247.161-.536.347-.859.553a4.919,4.919,0,0,1-1.111.489,4.313,4.313,0,0,1-2.717,0,4.908,4.908,0,0,1-1.11-.489c-.319-.2-.609-.39-.859-.554a1.541,1.541,0,0,0-.824-.35,4.111,4.111,0,0,0-1.52.275,3.652,3.652,0,0,0-1.191.748,4.708,4.708,0,0,0-.829,1.08,6.619,6.619,0,0,0-.55,1.248,10.505,10.505,0,0,0-.327,1.337,12.48,12.48,0,0,0-.171,1.331c-.028.4-.042.821-.042,1.243a3.5,3.5,0,0,0,1.038,2.645,3.738,3.738,0,0,0,2.675.976H13.851a3.737,3.737,0,0,0,2.675-.976,3.494,3.494,0,0,0,1.038-2.645C17.564,254.155,17.55,253.736,17.522,253.336Zm0,0" transform="translate(0 -237.147)"/></svg>